<?xml version="1.0" encoding="UTF-8"?>
<!DOCTYPE svg PUBLIC "-//W3C//DTD SVG 1.1//EN" "http://www.w3.org/Graphics/SVG/1.1/DTD/svg11.dtd">
<svg xmlns="http://www.w3.org/2000/svg" version="1.1" width="750px" height="750px" style="shape-rendering:geometricPrecision; text-rendering:geometricPrecision; image-rendering:optimizeQuality; fill-rule:evenodd; clip-rule:evenodd" xmlns:xlink="http://www.w3.org/1999/xlink">
<g><path style="opacity:0.999" fill="#1584ff" d="M 303.5,749.5 C 302.167,749.5 300.833,749.5 299.5,749.5C 299.5,712.5 299.5,675.5 299.5,638.5C 235.811,638.967 172.144,638.467 108.5,637C 93.2637,632.765 82.7637,623.265 77,608.5C 75.3388,441.542 75.0055,274.542 76,107.5C 80.8333,90.6667 91.6667,79.8333 108.5,75C 285.5,74.3333 462.5,74.3333 639.5,75C 658.222,79.7219 669.389,91.5552 673,110.5C 673.667,274.167 673.667,437.833 673,601.5C 668.103,624.394 653.936,636.56 630.5,638C 563.5,638.333 496.5,638.667 429.5,639C 387.307,675.699 345.307,712.532 303.5,749.5 Z"/></g>
<g><path style="opacity:1" fill="#fdfeff" d="M 502.5,243.5 C 514.777,254.606 526.943,265.94 539,277.5C 539.667,278.5 539.667,279.5 539,280.5C 474.028,343.805 409.361,407.471 345,471.5C 311.833,437.667 278.667,403.833 245.5,370C 257.667,357.833 269.833,345.667 282,333.5C 303.013,355.346 324.179,377.012 345.5,398.5C 398.186,347.147 450.52,295.48 502.5,243.5 Z"/></g>
</svg>
